# xmcd
#
# Track frame offsets: 
#        150
#        14005
#        30872
#        51382
#        65455
#        79822
#        93730
#        106780
#        122272
#        136995
#
# Disc length: 2035 seconds
#
# Revision: 2
# Processed by: cddbd v1.5.1PL2 Copyright (c) Steve Scherf et al.
# Submitted via: ExactAudioCopy v0.95b4
#
DISCID=7b07f10a
DTITLE=Reba McEntire - Sweet Sixteen
DYEAR=1989
DGENRE=Country
TTITLE0=Cathy's Clown
TTITLE1='Til Love Comes Again
TTITLE2=It Always Rains On Saturday
TTITLE3=Am I The Only One Who Cares
TTITLE4=Somebody Up There Likes Me
TTITLE5=You Must Really Love Me
TTITLE6=Say The Word
TTITLE7=Little Girl
TTITLE8=Walk On
TTITLE9=A New Love
EXTD=
EXTT0=
EXTT1=
EXTT2=
EXTT3=
EXTT4=
EXTT5=
EXTT6=
EXTT7=
EXTT8=
EXTT9=
PLAYORDER=
